<svg width="25" height="24" viewBox="0 0 25 24" fill="none" xmlns="http://www.w3.org/2000/svg">
<path d="M12.5013 0.706055C6.26377 0.706055 1.20728 5.76253 1.20728 12C1.20728 18.2375 6.26375 23.294 12.5013 23.294C18.7387 23.294 23.7952 18.2375 23.7952 12C23.7952 5.76255 18.7388 0.706055 12.5013 0.706055Z" fill="white"/>
<path d="M12.5013 0.706055C6.26377 0.706055 1.20728 5.76253 1.20728 12C1.20728 18.2375 6.26375 23.294 12.5013 23.294C18.7387 23.294 23.7952 18.2375 23.7952 12C23.7952 5.76255 18.7388 0.706055 12.5013 0.706055Z" fill="white"/>
<path d="M21.5239 18.7925H3.47854C4.06135 19.5654 4.74241 20.2592 5.50113 20.8596H19.5013C20.2601 20.2593 20.9412 19.5654 21.5239 18.7925ZM23.7906 11.8163C23.7793 11.1098 23.7057 10.4185 23.5703 9.74927H1.43218C1.29681 10.4185 1.22323 11.1098 1.21191 11.8163H23.7906ZM22.7679 7.29473C22.4308 6.56034 22.0196 5.86708 21.5397 5.22767H3.46275C2.9829 5.86708 2.5717 6.56034 2.23457 7.29473H22.7679ZM19.0102 2.77311C17.1701 1.47265 14.9259 0.706055 12.5013 0.706055C10.0766 0.706055 7.83237 1.47265 5.99229 2.77311H19.0102ZM22.9307 16.3379C23.2054 15.6781 23.4205 14.9871 23.5667 14.2709H1.43578C1.58197 14.9871 1.79705 15.6781 2.07183 16.3379H22.9307Z" fill="#D80027"/>
<path d="M12.499 0.709106V11.8197H1.20483C1.20483 11.3044 1.24016 10.8103 1.31073 10.3162V10.3091C1.39544 9.65266 1.54369 9.01735 1.74838 8.40324V8.39617C1.89663 7.90911 2.08719 7.44325 2.30601 6.99854C2.32014 6.95619 2.34134 6.91383 2.36956 6.87149C2.90604 5.79147 3.61192 4.81028 4.45899 3.96326C4.8825 3.5397 5.34836 3.14441 5.83542 2.79854C6.04016 2.64326 6.25898 2.50208 6.4778 2.36796C7.05663 2.00795 7.67074 1.69736 8.31308 1.45734C8.94133 1.2103 9.5978 1.01969 10.2825 0.899709C10.939 0.772657 11.6166 0.709106 12.3155 0.709106H12.499Z" fill="#0571E5"/>
<path d="M9.74509 7.47668L10.2999 8.59904L11.5387 8.77974L10.6423 9.65363L10.854 10.8875L9.74509 10.3052L8.63685 10.8875L8.84862 9.65363L7.95215 8.77974L9.19097 8.59904L9.74509 7.47668Z" fill="white"/>
<path d="M9.74509 3.63953L10.2999 4.76259L11.5387 4.94258L10.6423 5.81717L10.854 7.05106L9.74509 6.4687L8.63685 7.05106L8.84862 5.81717L7.95215 4.94258L9.19097 4.76259L9.74509 3.63953Z" fill="white"/>
<path d="M10.6426 1.97968L10.8544 3.21497L9.74619 2.62908L8.63795 3.21497L8.84971 1.97968L8.31323 1.45729C8.94147 1.21025 9.59795 1.01964 10.2827 0.899658L10.2968 0.927879L11.5391 1.10435L10.6426 1.97968Z" fill="white"/>
<path d="M5.51899 7.47668L6.07311 8.59904L7.31264 8.77974L6.41546 9.65363L6.62722 10.8875L5.51899 10.3052L4.41075 10.8875L4.62252 9.65363L3.72534 8.77974L4.96487 8.59904L5.51899 7.47668Z" fill="white"/>
<path d="M5.51899 3.63953L6.07311 4.76259L7.31264 4.94258L6.41546 5.81717L6.62722 7.05106L5.51899 6.4687L4.41075 7.05106L4.62252 5.81717L3.72534 4.94258L4.96487 4.76259L5.51899 3.63953Z" fill="white"/>
<path d="M6.62604 3.21499L5.83545 2.79849C6.04018 2.64322 6.25901 2.50204 6.47783 2.36792L6.62604 3.21499Z" fill="white"/>
<path d="M2.18608 9.65264L2.39784 10.8879L1.31079 10.3162V10.3091C1.3955 9.65264 1.54375 9.01732 1.74844 8.40321L1.84727 8.60084L3.08256 8.77731L2.18608 9.65264ZM2.39784 7.04793L2.30607 6.99851C2.3202 6.95616 2.3414 6.91381 2.36962 6.87146L2.39784 7.04793Z" fill="white"/>
</svg>
