<svg width="56" height="55" viewBox="0 0 56 55" fill="none" xmlns="http://www.w3.org/2000/svg">
<path fill-rule="evenodd" clip-rule="evenodd" d="M31.9 16C32.1 17.1 31.6 18.2 31 19C30.4 19.8 29.3 20.5 28.2 20.4C28 19.3 28.5 18.3 29.1 17.5C29.8 16.7 30.9 16.1 31.9 16ZM35.1 33.4C35.6 32.6 35.9 32.1 36.3 31.2C33.2 30 32.7 25.6 35.8 24C34.9 22.8 33.6 22.2 32.3 22.2C31.4 22.2 30.8 22.4 30.2 22.6C29.7 22.8 29.3 22.9 28.8 22.9C28.2 22.9 27.8 22.7 27.2 22.5C26.6 22.3 26 22.1 25.3 22.1C23.9 22.1 22.4 22.9 21.5 24.4C20.2 26.4 20.4 30.3 22.5 33.5C23.4 34.7 24.4 36 25.7 36C26.3 36 26.6 35.8 27 35.7C27.5 35.5 28 35.3 28.8 35.3C29.7 35.3 30.1 35.5 30.6 35.7C31 35.9 31.3 36 31.9 36C33.3 36 34.3 34.5 35.1 33.4Z" stroke="white" stroke-width="1.5" stroke-miterlimit="10" stroke-linecap="round" stroke-linejoin="round"/>
<circle cx="28" cy="27.5" r="27" stroke="#CCCCCC"/>
</svg>
