<svg width="25" height="24" viewBox="0 0 25 24" fill="none" xmlns="http://www.w3.org/2000/svg">
<g clip-path="url(#clip0_965_2873)">
<path d="M12.5 24C19.1274 24 24.5 18.6274 24.5 12C24.5 5.37258 19.1274 0 12.5 0C5.87258 0 0.5 5.37258 0.5 12C0.5 18.6274 5.87258 24 12.5 24Z" fill="#F0F0F0"/>
<path d="M2.98081 4.6941C2.0382 5.92049 1.32743 7.334 0.913574 8.86958H7.15629L2.98081 4.6941ZM24.0868 8.86958C23.6729 7.33405 22.9621 5.92053 22.0196 4.69414L17.8442 8.86958H24.0868ZM0.913574 15.1304C1.32748 16.666 2.03825 18.0795 2.98081 19.3058L7.15615 15.1304H0.913574ZM19.806 2.48061C18.5796 1.538 17.1662 0.827236 15.6306 0.41333V6.656L19.806 2.48061ZM5.19434 21.5193C6.42073 22.4619 7.83425 23.1726 9.36978 23.5865V17.3439L5.19434 21.5193ZM9.36973 0.41333C7.8342 0.827236 6.42068 1.538 5.19434 2.48056L9.36973 6.65595V0.41333ZM15.6306 23.5865C17.1662 23.1726 18.5797 22.4619 19.806 21.5193L15.6306 17.3439V23.5865ZM17.8442 15.1304L22.0196 19.3059C22.9621 18.0795 23.6729 16.666 24.0868 15.1304H17.8442Z" fill="#0571E5"/>
<path d="M24.3984 10.4348H14.0653V0.101578C13.5462 0.0339565 13.0234 2.60722e-05 12.5 0C11.9694 0 11.4471 0.034875 10.9348 0.101578V10.4347H0.601578C0.533956 10.9538 0.500026 11.4766 0.5 12C0.5 12.5306 0.534875 13.0529 0.601578 13.5652H10.9347V23.8984C11.9738 24.0339 13.0261 24.0339 14.0652 23.8984V13.5653H24.3984C24.466 13.0462 24.5 12.5234 24.5 12C24.5 11.4695 24.4651 10.9471 24.3984 10.4348Z" fill="#D80027"/>
<path d="M15.6307 15.1305L20.9855 20.4854C21.2316 20.2389 21.467 19.9819 21.6908 19.715L17.1064 15.1305H15.6307V15.1305ZM9.36976 15.1305H9.36966L4.0149 20.4853C4.26136 20.7315 4.5184 20.9668 4.78529 21.1907L9.36976 16.6061V15.1305ZM9.36976 8.86968V8.86959L4.01495 3.51473C3.76878 3.76119 3.53343 4.01823 3.30957 4.28512L7.89409 8.86964H9.36976V8.86968ZM15.6307 8.86968L20.9855 3.51478C20.7391 3.26861 20.482 3.03328 20.2151 2.80945L15.6307 7.39396V8.86968Z" fill="#D80027"/>
</g>
<defs>
<clipPath id="clip0_965_2873">
<rect width="24" height="24" fill="white" transform="translate(0.5)"/>
</clipPath>
</defs>
</svg>
