<svg width="22" height="20" viewBox="0 0 22 20" fill="none" xmlns="http://www.w3.org/2000/svg">
<path d="M1 10C1 6.02 1 4.03 2.053 2.702C2.22167 2.48933 2.40633 2.29367 2.607 2.115C3.862 1 5.741 1 9.5 1H12.5C16.259 1 18.138 1 19.392 2.115C19.5933 2.29367 19.7783 2.48933 19.947 2.702C21 4.03 21 6.02 21 10C21 13.98 21 15.97 19.947 17.298C19.7796 17.5096 19.5939 17.706 19.392 17.885C18.138 19 16.26 19 12.5 19H9.5C5.741 19 3.862 19 2.607 17.885C2.40549 17.7059 2.22011 17.5095 2.053 17.298C1 15.97 1 13.98 1 10Z" stroke="#343A40" stroke-width="1.5" stroke-linecap="round" stroke-linejoin="round"/>
<path d="M9.5 7H9C8.068 7 7.602 7 7.235 7.152C6.99218 7.25251 6.77155 7.3999 6.58572 7.58572C6.3999 7.77155 6.25251 7.99218 6.152 8.235C6 8.602 6 9.068 6 10C6 10.932 6 11.398 6.152 11.765C6.25251 12.0078 6.3999 12.2284 6.58572 12.4143C6.77155 12.6001 6.99218 12.7475 7.235 12.848C7.602 13 8.068 13 9 13H9.5M16 7H15.5C14.568 7 14.102 7 13.735 7.152C13.4922 7.25251 13.2716 7.3999 13.0857 7.58572C12.8999 7.77155 12.7525 7.99218 12.652 8.235C12.5 8.602 12.5 9.068 12.5 10C12.5 10.932 12.5 11.398 12.652 11.765C12.7525 12.0078 12.8999 12.2284 13.0857 12.4143C13.2716 12.6001 13.4922 12.7475 13.735 12.848C14.102 13 14.568 13 15.5 13H16" stroke="#343A40" stroke-width="1.5" stroke-linecap="round" stroke-linejoin="round"/>
</svg>
