<svg width="22" height="22" viewBox="0 0 22 22" fill="none" xmlns="http://www.w3.org/2000/svg">
<path d="M11 19.9873C16.1973 19.9873 20.4106 15.7741 20.4106 10.5767C20.4106 5.37937 16.1973 1.16609 11 1.16609C5.80264 1.16609 1.58936 5.37937 1.58936 10.5767C1.58936 15.7741 5.80264 19.9873 11 19.9873Z" fill="#FFF176"/>
<path d="M11 19.149C15.7343 19.149 19.5723 15.3111 19.5723 10.5767C19.5723 5.84239 15.7343 2.00446 11 2.00446C6.26567 2.00446 2.42773 5.84239 2.42773 10.5767C2.42773 15.3111 6.26567 19.149 11 19.149Z" fill="#F2BC1A"/>
<path d="M11 1.16773C5.80248 1.16773 1.58936 5.38086 1.58936 10.5784C1.58936 15.7759 5.80248 19.989 11 19.989C16.1975 19.989 20.4106 15.7759 20.4106 10.5784C20.4106 5.38086 16.1975 1.16773 11 1.16773ZM11 19.1506C6.26514 19.1506 2.42771 15.3132 2.42771 10.5784C2.42771 5.84187 6.26514 2.00445 11 2.00445C15.7348 2.00445 19.5722 5.84187 19.5722 10.5767C19.5722 15.3116 15.7348 19.1506 11 19.1506Z" fill="#FFF176"/>
<path d="M14.9114 7.77289L11.0001 5.55312L7.08887 7.77289H14.9114Z" fill="#F2BC1A"/>
<g clip-path="url(#clip0_868_3204)">
<path d="M15 13L14.3 9.65C14.2 9.3 13.85 9 13.45 9H12.5V8.4C12.5 7.9 12.1 7.5 11.6 7.5H10.4C9.89999 7.5 9.49999 7.9 9.49999 8.4V9H8.54999C8.14999 9 7.79999 9.3 7.69999 9.65L6.99999 13C6.89999 13.5 7.29999 14 7.84999 14H14.1C14.7 14 15.1 13.5 15 13ZM9.99999 8.4C9.99999 8.2 10.2 8 10.4 8H11.6C11.8 8 12 8.2 12 8.4V9H9.99999V8.4ZM12.5 12H11.5V13H10.5V12H9.49999V11H10.5V10H11.5V11H12.5V12Z" fill="#FFF176"/>
</g>
<defs>
<clipPath id="clip0_868_3204">
<rect width="8" height="8" fill="white" transform="translate(7 7)"/>
</clipPath>
</defs>
</svg>
