<svg width="24" height="24" viewBox="0 0 24 24" fill="none" xmlns="http://www.w3.org/2000/svg">
<path d="M2 12C2 8.02 2 6.03 3.053 4.702C3.22167 4.48933 3.40633 4.29367 3.607 4.115C4.862 3 6.741 3 10.5 3H13.5C17.259 3 19.138 3 20.392 4.115C20.5933 4.29367 20.7783 4.48933 20.947 4.702C22 6.03 22 8.02 22 12C22 15.98 22 17.97 20.947 19.298C20.7796 19.5096 20.5939 19.706 20.392 19.885C19.138 21 17.26 21 13.5 21H10.5C6.741 21 4.862 21 3.607 19.885C3.40549 19.7059 3.22011 19.5095 3.053 19.298C2 17.97 2 15.98 2 12Z" stroke="white" stroke-width="1.5" stroke-linecap="round" stroke-linejoin="round"/>
<path d="M10.5 9H10C9.068 9 8.602 9 8.235 9.152C7.99218 9.25251 7.77155 9.3999 7.58572 9.58572C7.3999 9.77155 7.25251 9.99218 7.152 10.235C7 10.602 7 11.068 7 12C7 12.932 7 13.398 7.152 13.765C7.25251 14.0078 7.3999 14.2284 7.58572 14.4143C7.77155 14.6001 7.99218 14.7475 8.235 14.848C8.602 15 9.068 15 10 15H10.5M17 9H16.5C15.568 9 15.102 9 14.735 9.152C14.4922 9.25251 14.2716 9.3999 14.0857 9.58572C13.8999 9.77155 13.7525 9.99218 13.652 10.235C13.5 10.602 13.5 11.068 13.5 12C13.5 12.932 13.5 13.398 13.652 13.765C13.7525 14.0078 13.8999 14.2284 14.0857 14.4143C14.2716 14.6001 14.4922 14.7475 14.735 14.848C15.102 15 15.568 15 16.5 15H17" stroke="white" stroke-width="1.5" stroke-linecap="round" stroke-linejoin="round"/>
</svg>
