<svg width="44" height="44" viewBox="0 0 44 44" fill="none" xmlns="http://www.w3.org/2000/svg">
<path opacity="0.5" d="M22 40.3332C32.1252 40.3332 40.3334 32.1251 40.3334 21.9998C40.3334 11.8746 32.1252 3.6665 22 3.6665C11.8748 3.6665 3.66669 11.8746 3.66669 21.9998C3.66669 32.1251 11.8748 40.3332 22 40.3332Z" fill="white" stroke="white" stroke-width="0.5" stroke-linecap="round" stroke-linejoin="round"/>
<path d="M22.4278 28.9391C22.1944 29.0203 21.7926 29.0203 21.5593 28.9391C19.537 28.2218 15 25.2035 15 20.0874C15 17.8272 16.737 16 18.8889 16C20.1593 16 21.287 16.6361 22 17.6377C22.7 16.6497 23.8407 16 25.1111 16C27.263 16 29 17.8272 29 20.0874C29 25.2035 24.463 28.2218 22.4278 28.9391Z" stroke="white" stroke-linecap="round" stroke-linejoin="round"/>
</svg>
