<svg width="44" height="44" viewBox="0 0 44 44" fill="none" xmlns="http://www.w3.org/2000/svg">
<path opacity="0.5" d="M22 40.3332C32.1252 40.3332 40.3334 32.1251 40.3334 21.9998C40.3334 11.8746 32.1252 3.6665 22 3.6665C11.8748 3.6665 3.66669 11.8746 3.66669 21.9998C3.66669 32.1251 11.8748 40.3332 22 40.3332Z" fill="white" stroke="white" stroke-width="0.5" stroke-linecap="round" stroke-linejoin="round"/>
<path d="M16.1667 16.1665H17.1817C17.8117 16.1665 18.3075 16.709 18.255 17.3332L17.7709 23.1432C17.6892 24.094 18.4417 24.9107 19.3983 24.9107H25.6109C26.4509 24.9107 27.1859 24.2223 27.25 23.3882L27.565 19.0132C27.635 18.0448 26.9 17.2573 25.9259 17.2573H18.395" stroke="white" stroke-miterlimit="10" stroke-linecap="round" stroke-linejoin="round"/>
<path d="M24.4792 27.8333C24.8819 27.8333 25.2083 27.5069 25.2083 27.1042C25.2083 26.7015 24.8819 26.375 24.4792 26.375C24.0765 26.375 23.75 26.7015 23.75 27.1042C23.75 27.5069 24.0765 27.8333 24.4792 27.8333Z" stroke="white" stroke-miterlimit="10" stroke-linecap="round" stroke-linejoin="round"/>
<path d="M19.8125 27.8333C20.2152 27.8333 20.5416 27.5069 20.5416 27.1042C20.5416 26.7015 20.2152 26.375 19.8125 26.375C19.4098 26.375 19.0833 26.7015 19.0833 27.1042C19.0833 27.5069 19.4098 27.8333 19.8125 27.8333Z" stroke="white" stroke-miterlimit="10" stroke-linecap="round" stroke-linejoin="round"/>
<path d="M20.25 19.6665H27.25" stroke="white" stroke-miterlimit="10" stroke-linecap="round" stroke-linejoin="round"/>
</svg>
