<svg width="24" height="24" viewBox="0 0 24 24" fill="none" xmlns="http://www.w3.org/2000/svg">
<path d="M12 15C9.33 15 4 16.34 4 19V21H20V19C20 16.34 14.67 15 12 15ZM12 13C13.86 13 15.41 11.72 15.86 10H8.14C8.59 11.72 10.14 13 12 13Z" fill="#0571E5"/>
<path d="M16.27 9H7.74C7.47 9 7.25 8.78 7.25 8.52V8.49C7.25 8.42565 7.26267 8.36194 7.2873 8.30249C7.31192 8.24304 7.34802 8.18902 7.39352 8.14352C7.43902 8.09802 7.49304 8.06192 7.55248 8.0373C7.61193 8.01267 7.67565 8 7.74 8H8C8 6.52 8.81 5.25 10 4.55V5.5C10 5.78 10.22 6 10.5 6C10.78 6 11 5.78 11 5.5V4.14C11.32 4.06 11.65 4 12 4C12.35 4 12.68 4.06 13 4.14V5.5C13 5.78 13.22 6 13.5 6C13.78 6 14 5.78 14 5.5V4.55C15.19 5.25 16 6.52 16 8H16.27C16.4 8 16.5246 8.05162 16.6165 8.14352C16.7084 8.23541 16.76 8.36004 16.76 8.49V8.51C16.76 8.78 16.54 9 16.27 9Z" fill="#D80027"/>
</svg>
