<svg width="56" height="55" viewBox="0 0 56 55" fill="none" xmlns="http://www.w3.org/2000/svg">
<path d="M38.1 26.2H28.7V29.9H34.2C34.1 30.8 33.5 32.2 32.2 33.1C31.4 33.7 30.2 34.1 28.7 34.1C26.1 34.1 23.8 32.4 23 29.9C22.8 29.3 22.7 28.6 22.7 27.9C22.7 27.2 22.8 26.5 23 25.9C23.1 25.7 23.1 25.5 23.2 25.4C24.1 23.3 26.2 21.8 28.7 21.8C30.6 21.8 31.8 22.6 32.6 23.3L35.4 20.5C33.6999 19 31.4 18 28.7 18C24.8 18 21.4 20.2 19.8 23.5C19.1 24.9 18.7 26.4 18.7 28C18.7 29.6 19.1 31.1 19.8 32.5C21.4 35.8 24.8 38 28.7 38C31.4 38 33.6999 37.1 35.2999 35.6C37.1999 33.9 38.2999 31.3 38.2999 28.2C38.2999 27.4 38.2 26.8 38.1 26.2Z" stroke="white" stroke-width="1.5" stroke-miterlimit="10" stroke-linecap="round" stroke-linejoin="round"/>
<circle cx="28" cy="27.5" r="27" stroke="#CCCCCC"/>
</svg>
