<svg width="22" height="22" viewBox="0 0 22 22" fill="none" xmlns="http://www.w3.org/2000/svg">
<path d="M1 11C1 16.523 5.477 21 11 21C16.523 21 21 16.523 21 11C21 5.477 16.523 1 11 1C5.477 1 1 5.477 1 11Z" stroke="#343A40" stroke-width="1.5" stroke-linecap="round" stroke-linejoin="round"/>
<path d="M12 1.04993C12 1.04993 15 4.99993 15 10.9999C15 16.9999 12 20.9499 12 20.9499M10 20.9499C10 20.9499 7 16.9999 7 10.9999C7 4.99993 10 1.04993 10 1.04993M1.63 14.4999H20.37M1.63 7.49993H20.37" stroke="#343A40" stroke-width="1.5" stroke-linecap="round" stroke-linejoin="round"/>
</svg>
