<svg width="35" height="34" viewBox="0 0 35 34" fill="none" xmlns="http://www.w3.org/2000/svg">
<path opacity="0.5" d="M17.3661 30.5761C25.0419 30.5761 31.2643 24.3536 31.2643 16.6778C31.2643 9.00201 25.0419 2.77954 17.3661 2.77954C9.69024 2.77954 3.46777 9.00201 3.46777 16.6778C3.46777 24.3536 9.69024 30.5761 17.3661 30.5761Z" fill="white" stroke="#000D24" stroke-width="0.379044" stroke-linecap="round" stroke-linejoin="round"/>
<path d="M17.6904 21.5241C17.5135 21.583 17.2088 21.583 17.0319 21.5241C15.4989 21.0032 12.0594 18.8118 12.0594 15.0972C12.0594 13.456 13.3763 12.1294 15.0076 12.1294C15.9706 12.1294 16.8256 12.5913 17.3661 13.3185C17.8967 12.6011 18.7615 12.1294 19.7246 12.1294C21.3559 12.1294 22.6727 13.456 22.6727 15.0972C22.6727 18.8118 19.2332 21.0032 17.6904 21.5241Z" fill="#FF3B30"/>
</svg>
