<svg width="50" height="50" viewBox="0 0 50 50" fill="none" xmlns="http://www.w3.org/2000/svg">
<path opacity="0.5" d="M24.5323 44.9759C35.823 44.9759 44.9759 35.823 44.9759 24.5323C44.9759 13.2416 35.823 4.08862 24.5323 4.08862C13.2416 4.08862 4.08862 13.2416 4.08862 24.5323C4.08862 35.823 13.2416 44.9759 24.5323 44.9759Z" fill="white" stroke="#000D24" stroke-width="0.557554" stroke-linecap="round" stroke-linejoin="round"/>
<path d="M25.0093 31.6608C24.7491 31.7475 24.301 31.7475 24.0408 31.6608C21.7859 30.8946 16.7266 27.6711 16.7266 22.2071C16.7266 19.7931 18.6635 17.8417 21.0631 17.8417C22.4797 17.8417 23.7373 18.5211 24.5323 19.5907C25.3129 18.5355 26.5849 17.8417 28.0015 17.8417C30.4011 17.8417 32.3381 19.7931 32.3381 22.2071C32.3381 27.6711 27.2788 30.8946 25.0093 31.6608Z" stroke="#000D24" stroke-width="0.557554" stroke-linecap="round" stroke-linejoin="round"/>
</svg>
