<svg width="45" height="47" viewBox="0 0 45 47" fill="none" xmlns="http://www.w3.org/2000/svg">
<path d="M19.52 3.33992L14.13 7.53992C13.23 8.23992 12.5 9.72992 12.5 10.8599V18.2699C12.5 20.5899 14.39 22.4899 16.71 22.4899H28.29C30.61 22.4899 32.5 20.5899 32.5 18.2799V10.9999C32.5 9.78992 31.69 8.23992 30.7 7.54992L24.52 3.21992C23.12 2.23992 20.87 2.28992 19.52 3.33992Z" stroke="#0571E5" stroke-width="1.5" stroke-linecap="round" stroke-linejoin="round"/>
<path d="M22.5 18.49V15.49" stroke="#0571E5" stroke-width="1.5" stroke-linecap="round" stroke-linejoin="round"/>
<path d="M11.688 33.112V41.5H10.848V37.576H6.3V41.5H5.46V33.112H6.3V36.88H10.848V33.112H11.688ZM16.4725 41.596C15.8565 41.596 15.3005 41.46 14.8045 41.188C14.3165 40.908 13.9285 40.516 13.6405 40.012C13.3605 39.5 13.2205 38.904 13.2205 38.224C13.2205 37.544 13.3645 36.952 13.6525 36.448C13.9405 35.936 14.3325 35.544 14.8285 35.272C15.3245 34.992 15.8805 34.852 16.4965 34.852C17.1125 34.852 17.6685 34.992 18.1645 35.272C18.6685 35.544 19.0605 35.936 19.3405 36.448C19.6285 36.952 19.7725 37.544 19.7725 38.224C19.7725 38.896 19.6285 39.488 19.3405 40C19.0525 40.512 18.6565 40.908 18.1525 41.188C17.6485 41.46 17.0885 41.596 16.4725 41.596ZM16.4725 40.864C16.9045 40.864 17.3045 40.768 17.6725 40.576C18.0405 40.376 18.3365 40.08 18.5605 39.688C18.7925 39.288 18.9085 38.8 18.9085 38.224C18.9085 37.648 18.7965 37.164 18.5725 36.772C18.3485 36.372 18.0525 36.076 17.6845 35.884C17.3165 35.684 16.9165 35.584 16.4845 35.584C16.0525 35.584 15.6525 35.684 15.2845 35.884C14.9165 36.076 14.6205 36.372 14.3965 36.772C14.1805 37.164 14.0725 37.648 14.0725 38.224C14.0725 38.8 14.1805 39.288 14.3965 39.688C14.6205 40.08 14.9125 40.376 15.2725 40.576C15.6405 40.768 16.0405 40.864 16.4725 40.864ZM29.1038 34.828C29.8718 34.828 30.4958 35.072 30.9758 35.56C31.4638 36.04 31.7078 36.74 31.7078 37.66V41.5H30.8798V37.756C30.8798 37.044 30.7078 36.5 30.3638 36.124C30.0198 35.748 29.5518 35.56 28.9598 35.56C28.3438 35.56 27.8518 35.764 27.4838 36.172C27.1158 36.58 26.9318 37.172 26.9318 37.948V41.5H26.1038V37.756C26.1038 37.044 25.9318 36.5 25.5878 36.124C25.2438 35.748 24.7718 35.56 24.1718 35.56C23.5558 35.56 23.0638 35.764 22.6958 36.172C22.3278 36.58 22.1438 37.172 22.1438 37.948V41.5H21.3038V34.948H22.1438V36.076C22.3518 35.668 22.6478 35.36 23.0318 35.152C23.4158 34.936 23.8438 34.828 24.3158 34.828C24.8838 34.828 25.3798 34.964 25.8038 35.236C26.2358 35.508 26.5478 35.908 26.7398 36.436C26.9158 35.916 27.2158 35.52 27.6398 35.248C28.0718 34.968 28.5598 34.828 29.1038 34.828ZM39.5013 37.888C39.5013 38.176 39.4933 38.396 39.4773 38.548H34.0413C34.0653 39.044 34.1853 39.468 34.4013 39.82C34.6173 40.172 34.9013 40.44 35.2533 40.624C35.6053 40.8 35.9893 40.888 36.4053 40.888C36.9493 40.888 37.4053 40.756 37.7733 40.492C38.1493 40.228 38.3973 39.872 38.5173 39.424H39.4053C39.2453 40.064 38.9013 40.588 38.3733 40.996C37.8533 41.396 37.1973 41.596 36.4053 41.596C35.7893 41.596 35.2373 41.46 34.7493 41.188C34.2613 40.908 33.8773 40.516 33.5973 40.012C33.3253 39.5 33.1893 38.904 33.1893 38.224C33.1893 37.544 33.3253 36.948 33.5973 36.436C33.8693 35.924 34.2493 35.532 34.7373 35.26C35.2253 34.988 35.7813 34.852 36.4053 34.852C37.0293 34.852 37.5733 34.988 38.0373 35.26C38.5093 35.532 38.8693 35.9 39.1173 36.364C39.3733 36.82 39.5013 37.328 39.5013 37.888ZM38.6493 37.864C38.6573 37.376 38.5573 36.96 38.3493 36.616C38.1493 36.272 37.8733 36.012 37.5213 35.836C37.1693 35.66 36.7853 35.572 36.3693 35.572C35.7453 35.572 35.2133 35.772 34.7733 36.172C34.3333 36.572 34.0893 37.136 34.0413 37.864H38.6493Z" fill="#0571E5"/>
</svg>
