<svg width="22" height="23" viewBox="0 0 22 23" fill="none" xmlns="http://www.w3.org/2000/svg">
<path fill-rule="evenodd" clip-rule="evenodd" d="M0.25 11.313C0.25 5.38299 5.07 0.562988 11 0.562988C16.93 0.562988 21.75 5.38299 21.75 11.313C21.75 17.243 16.93 22.063 11 22.063C5.07 22.063 0.25 17.243 0.25 11.313ZM1.75 11.313C1.75 16.413 5.9 20.563 11 20.563C16.1 20.563 20.25 16.413 20.25 11.313C20.25 6.21299 16.1 2.06299 11 2.06299C5.9 2.06299 1.75 6.21299 1.75 11.313ZM15.17 5.07299C16.4 5.90299 17.36 7.07299 17.93 8.44299H17.92C18.49 9.81299 18.64 11.323 18.35 12.773C18.06 14.233 17.35 15.563 16.3 16.613C15.254 17.6654 13.9184 18.3824 12.4633 18.6727C11.0083 18.963 9.49971 18.8134 8.13 18.243C6.75835 17.6766 5.58555 16.7161 4.76 15.483C3.93995 14.2467 3.50176 12.7965 3.5 11.313H11V3.81299C12.49 3.81299 13.94 4.25299 15.17 5.07299Z" fill="#EE3139"/>
</svg>
