<svg width="25" height="25" viewBox="0 0 25 25" fill="none" xmlns="http://www.w3.org/2000/svg">
<path d="M12.6601 11.37C12.5601 11.36 12.4401 11.36 12.3301 11.37C9.95006 11.29 8.06006 9.34 8.06006 6.94C8.06006 4.49 10.0401 2.5 12.5001 2.5C14.9501 2.5 16.9401 4.49 16.9401 6.94C16.9301 9.34 15.0401 11.29 12.6601 11.37Z" stroke="#CCCCCC" stroke-width="1.5" stroke-linecap="round" stroke-linejoin="round"/>
<path d="M7.66021 15.06C5.24021 16.68 5.24021 19.32 7.66021 20.93C10.4102 22.77 14.9202 22.77 17.6702 20.93C20.0902 19.31 20.0902 16.67 17.6702 15.06C14.9302 13.23 10.4202 13.23 7.66021 15.06Z" stroke="#CCCCCC" stroke-width="1.5" stroke-linecap="round" stroke-linejoin="round"/>
</svg>
