<svg width="105" height="24" viewBox="0 0 105 24" fill="none" xmlns="http://www.w3.org/2000/svg">
<path fill-rule="evenodd" clip-rule="evenodd" d="M1.25 12.313C1.25 6.38299 6.07 1.56299 12 1.56299C17.93 1.56299 22.75 6.38299 22.75 12.313C22.75 18.243 17.93 23.063 12 23.063C6.07 23.063 1.25 18.243 1.25 12.313ZM2.75 12.313C2.75 17.413 6.9 21.563 12 21.563C17.1 21.563 21.25 17.413 21.25 12.313C21.25 7.21299 17.1 3.06299 12 3.06299C6.9 3.06299 2.75 7.21299 2.75 12.313ZM16.17 6.07299C17.4 6.90299 18.36 8.07299 18.93 9.44299H18.92C19.49 10.813 19.64 12.323 19.35 13.773C19.06 15.233 18.35 16.563 17.3 17.613C16.254 18.6654 14.9184 19.3824 13.4633 19.6727C12.0083 19.963 10.4997 19.8134 9.13 19.243C7.75835 18.6766 6.58555 17.7161 5.76 16.483C4.93995 15.2467 4.50176 13.7965 4.5 12.313H12V4.81299C13.49 4.81299 14.94 5.25299 16.17 6.07299Z" fill="#EE3139"/>
<path d="M44.688 10.112C44.688 11.04 44.368 11.8133 43.728 12.432C43.0987 13.04 42.1333 13.344 40.832 13.344H38.688V18H37.232V6.848H40.832C42.0907 6.848 43.0453 7.152 43.696 7.76C44.3573 8.368 44.688 9.152 44.688 10.112ZM40.832 12.144C41.6427 12.144 42.24 11.968 42.624 11.616C43.008 11.264 43.2 10.7627 43.2 10.112C43.2 8.736 42.4107 8.048 40.832 8.048H38.688V12.144H40.832ZM47.9536 10.656C48.2096 10.1547 48.5723 9.76533 49.0416 9.488C49.5216 9.21067 50.103 9.072 50.7856 9.072V10.576H50.4016C48.7696 10.576 47.9536 11.4613 47.9536 13.232V18H46.4976V9.232H47.9536V10.656ZM56.2904 18.144C55.469 18.144 54.7224 17.9573 54.0504 17.584C53.389 17.2107 52.8664 16.6827 52.4824 16C52.109 15.3067 51.9224 14.5067 51.9224 13.6C51.9224 12.704 52.1144 11.9147 52.4984 11.232C52.893 10.5387 53.4264 10.0107 54.0984 9.648C54.7704 9.27467 55.5224 9.088 56.3544 9.088C57.1864 9.088 57.9384 9.27467 58.6104 9.648C59.2824 10.0107 59.8104 10.5333 60.1944 11.216C60.589 11.8987 60.7864 12.6933 60.7864 13.6C60.7864 14.5067 60.5837 15.3067 60.1784 16C59.7837 16.6827 59.245 17.2107 58.5624 17.584C57.8797 17.9573 57.1224 18.144 56.2904 18.144ZM56.2904 16.864C56.813 16.864 57.3037 16.7413 57.7624 16.496C58.221 16.2507 58.589 15.8827 58.8664 15.392C59.1544 14.9013 59.2984 14.304 59.2984 13.6C59.2984 12.896 59.1597 12.2987 58.8824 11.808C58.605 11.3173 58.2424 10.9547 57.7944 10.72C57.3464 10.4747 56.861 10.352 56.3384 10.352C55.805 10.352 55.3144 10.4747 54.8664 10.72C54.429 10.9547 54.077 11.3173 53.8104 11.808C53.5437 12.2987 53.4104 12.896 53.4104 13.6C53.4104 14.3147 53.5384 14.9173 53.7944 15.408C54.061 15.8987 54.413 16.2667 54.8504 16.512C55.2877 16.7467 55.7677 16.864 56.2904 16.864ZM66.3168 9.088C67.0741 9.088 67.7354 9.25333 68.3008 9.584C68.8768 9.91467 69.3034 10.3307 69.5808 10.832V9.232H71.0528V18.192C71.0528 18.992 70.8821 19.7013 70.5408 20.32C70.1994 20.9493 69.7088 21.44 69.0688 21.792C68.4394 22.144 67.7034 22.32 66.8608 22.32C65.7088 22.32 64.7488 22.048 63.9808 21.504C63.2128 20.96 62.7594 20.2187 62.6208 19.28H64.0608C64.2208 19.8133 64.5514 20.24 65.0528 20.56C65.5541 20.8907 66.1568 21.056 66.8608 21.056C67.6608 21.056 68.3114 20.8053 68.8128 20.304C69.3248 19.8027 69.5808 19.0987 69.5808 18.192V16.352C69.2928 16.864 68.8661 17.2907 68.3008 17.632C67.7354 17.9733 67.0741 18.144 66.3168 18.144C65.5381 18.144 64.8288 17.952 64.1888 17.568C63.5594 17.184 63.0634 16.6453 62.7008 15.952C62.3381 15.2587 62.1568 14.4693 62.1568 13.584C62.1568 12.688 62.3381 11.904 62.7008 11.232C63.0634 10.5493 63.5594 10.0213 64.1888 9.648C64.8288 9.27467 65.5381 9.088 66.3168 9.088ZM69.5808 13.6C69.5808 12.9387 69.4474 12.3627 69.1808 11.872C68.9141 11.3813 68.5514 11.008 68.0928 10.752C67.6448 10.4853 67.1488 10.352 66.6048 10.352C66.0608 10.352 65.5648 10.48 65.1168 10.736C64.6688 10.992 64.3114 11.3653 64.0448 11.856C63.7781 12.3467 63.6448 12.9227 63.6448 13.584C63.6448 14.256 63.7781 14.8427 64.0448 15.344C64.3114 15.8347 64.6688 16.2133 65.1168 16.48C65.5648 16.736 66.0608 16.864 66.6048 16.864C67.1488 16.864 67.6448 16.736 68.0928 16.48C68.5514 16.2133 68.9141 15.8347 69.1808 15.344C69.4474 14.8427 69.5808 14.2613 69.5808 13.6ZM74.9693 10.656C75.2253 10.1547 75.5879 9.76533 76.0573 9.488C76.5373 9.21067 77.1186 9.072 77.8013 9.072V10.576H77.4173C75.7853 10.576 74.9693 11.4613 74.9693 13.232V18H73.5133V9.232H74.9693V10.656ZM87.482 13.28C87.482 13.5573 87.466 13.8507 87.434 14.16H80.426C80.4793 15.024 80.7727 15.7013 81.306 16.192C81.85 16.672 82.506 16.912 83.274 16.912C83.9033 16.912 84.426 16.768 84.842 16.48C85.2687 16.1813 85.5673 15.7867 85.738 15.296H87.306C87.0713 16.1387 86.602 16.8267 85.898 17.36C85.194 17.8827 84.3193 18.144 83.274 18.144C82.442 18.144 81.6953 17.9573 81.034 17.584C80.3833 17.2107 79.8713 16.6827 79.498 16C79.1247 15.3067 78.938 14.5067 78.938 13.6C78.938 12.6933 79.1193 11.8987 79.482 11.216C79.8447 10.5333 80.3513 10.0107 81.002 9.648C81.6633 9.27467 82.4207 9.088 83.274 9.088C84.106 9.088 84.842 9.26933 85.482 9.632C86.122 9.99467 86.6127 10.496 86.954 11.136C87.306 11.7653 87.482 12.48 87.482 13.28ZM85.978 12.976C85.978 12.4213 85.8553 11.9467 85.61 11.552C85.3647 11.1467 85.0287 10.8427 84.602 10.64C84.186 10.4267 83.722 10.32 83.21 10.32C82.474 10.32 81.8447 10.5547 81.322 11.024C80.81 11.4933 80.5167 12.144 80.442 12.976H85.978ZM92.5079 18.144C91.8359 18.144 91.2332 18.032 90.6999 17.808C90.1665 17.5733 89.7452 17.2533 89.4359 16.848C89.1265 16.432 88.9559 15.9573 88.9239 15.424H90.4279C90.4705 15.8613 90.6732 16.2187 91.0359 16.496C91.4092 16.7733 91.8945 16.912 92.4919 16.912C93.0465 16.912 93.4839 16.7893 93.8039 16.544C94.1239 16.2987 94.2839 15.9893 94.2839 15.616C94.2839 15.232 94.1132 14.9493 93.7719 14.768C93.4305 14.576 92.9025 14.3893 92.1879 14.208C91.5372 14.0373 91.0039 13.8667 90.5879 13.696C90.1825 13.5147 89.8305 13.2533 89.5319 12.912C89.2439 12.56 89.0999 12.1013 89.0999 11.536C89.0999 11.088 89.2332 10.6773 89.4999 10.304C89.7665 9.93067 90.1452 9.63733 90.6359 9.424C91.1265 9.2 91.6865 9.088 92.3159 9.088C93.2865 9.088 94.0705 9.33333 94.6679 9.824C95.2652 10.3147 95.5852 10.9867 95.6279 11.84H94.1719C94.1399 11.3813 93.9532 11.0133 93.6119 10.736C93.2812 10.4587 92.8332 10.32 92.2679 10.32C91.7452 10.32 91.3292 10.432 91.0199 10.656C90.7105 10.88 90.5559 11.1733 90.5559 11.536C90.5559 11.824 90.6465 12.064 90.8279 12.256C91.0199 12.4373 91.2545 12.5867 91.5319 12.704C91.8199 12.8107 92.2145 12.9333 92.7159 13.072C93.3452 13.2427 93.8572 13.4133 94.2519 13.584C94.6465 13.744 94.9825 13.9893 95.2599 14.32C95.5479 14.6507 95.6972 15.0827 95.7079 15.616C95.7079 16.096 95.5745 16.528 95.3079 16.912C95.0412 17.296 94.6625 17.6 94.1719 17.824C93.6919 18.0373 93.1372 18.144 92.5079 18.144ZM100.867 18.144C100.195 18.144 99.5926 18.032 99.0593 17.808C98.5259 17.5733 98.1046 17.2533 97.7953 16.848C97.4859 16.432 97.3153 15.9573 97.2833 15.424H98.7873C98.8299 15.8613 99.0326 16.2187 99.3953 16.496C99.7686 16.7733 100.254 16.912 100.851 16.912C101.406 16.912 101.843 16.7893 102.163 16.544C102.483 16.2987 102.643 15.9893 102.643 15.616C102.643 15.232 102.473 14.9493 102.131 14.768C101.79 14.576 101.262 14.3893 100.547 14.208C99.8966 14.0373 99.3633 13.8667 98.9473 13.696C98.5419 13.5147 98.1899 13.2533 97.8913 12.912C97.6033 12.56 97.4593 12.1013 97.4593 11.536C97.4593 11.088 97.5926 10.6773 97.8593 10.304C98.1259 9.93067 98.5046 9.63733 98.9953 9.424C99.4859 9.2 100.046 9.088 100.675 9.088C101.646 9.088 102.43 9.33333 103.027 9.824C103.625 10.3147 103.945 10.9867 103.987 11.84H102.531C102.499 11.3813 102.313 11.0133 101.971 10.736C101.641 10.4587 101.193 10.32 100.627 10.32C100.105 10.32 99.6886 10.432 99.3793 10.656C99.0699 10.88 98.9153 11.1733 98.9153 11.536C98.9153 11.824 99.0059 12.064 99.1873 12.256C99.3793 12.4373 99.6139 12.5867 99.8913 12.704C100.179 12.8107 100.574 12.9333 101.075 13.072C101.705 13.2427 102.217 13.4133 102.611 13.584C103.006 13.744 103.342 13.9893 103.619 14.32C103.907 14.6507 104.057 15.0827 104.067 15.616C104.067 16.096 103.934 16.528 103.667 16.912C103.401 17.296 103.022 17.6 102.531 17.824C102.051 18.0373 101.497 18.144 100.867 18.144Z" fill="#343A40"/>
</svg>
