<svg width="22" height="22" viewBox="0 0 22 22" fill="none" xmlns="http://www.w3.org/2000/svg">
<path d="M11 19.9874C16.1973 19.9874 20.4106 15.7741 20.4106 10.5768C20.4106 5.37942 16.1973 1.16614 11 1.16614C5.80264 1.16614 1.58936 5.37942 1.58936 10.5768C1.58936 15.7741 5.80264 19.9874 11 19.9874Z" fill="#FFF176"/>
<path d="M11 19.1489C15.7343 19.1489 19.5723 15.311 19.5723 10.5767C19.5723 5.84233 15.7343 2.00439 11 2.00439C6.26567 2.00439 2.42773 5.84233 2.42773 10.5767C2.42773 15.311 6.26567 19.1489 11 19.1489Z" fill="#F2BC1A"/>
<path d="M11 1.16772C5.80248 1.16772 1.58936 5.38085 1.58936 10.5783C1.58936 15.7758 5.80248 19.989 11 19.989C16.1975 19.989 20.4106 15.7758 20.4106 10.5783C20.4106 5.38085 16.1975 1.16772 11 1.16772ZM11 19.1506C6.26514 19.1506 2.42771 15.3132 2.42771 10.5783C2.42771 5.84186 6.26514 2.00444 11 2.00444C15.7348 2.00444 19.5722 5.84186 19.5722 10.5767C19.5722 15.3116 15.7348 19.1506 11 19.1506Z" fill="#FFF176"/>
<path d="M14.9112 7.77287L11 5.5531L7.08875 7.77287H14.9112Z" fill="#F2BC1A"/>
<path d="M9.50002 9.26542V8.66542C9.50002 7.80862 10.169 7.10962 11 7.10962C11.831 7.10962 12.5 7.80862 12.5 8.66542V9.26542H13.5368C13.5843 9.26545 13.63 9.28349 13.6648 9.31588C13.6995 9.34828 13.7207 9.39264 13.724 9.44002L14.0804 14.69C14.0835 14.7396 14.067 14.7884 14.0343 14.8259C14.0016 14.8633 13.9554 14.8863 13.9058 14.8898H8.10682C8.05717 14.8898 8.00955 14.8701 7.97445 14.835C7.93934 14.7999 7.91962 14.7523 7.91962 14.7026V14.69L8.27602 9.44002C8.27921 9.39253 8.30032 9.34803 8.33507 9.3155C8.36982 9.28298 8.41562 9.26486 8.46322 9.26482L9.50002 9.26542ZM10.0628 9.26542H11.9378V8.66542C11.9378 8.11402 11.5178 7.67182 11 7.67182C10.4822 7.67182 10.0628 8.11402 10.0628 8.66542V9.26542ZM8.50822 14.3282H13.4918L13.187 9.82822H8.81362L8.50822 14.3282Z" fill="#FFF05D"/>
</svg>
