<svg width="19" height="18" viewBox="0 0 19 18" fill="none" xmlns="http://www.w3.org/2000/svg">
<path d="M5.1275 13.5C5.28245 13.0609 5.5698 12.6806 5.94995 12.4116C6.3301 12.1426 6.78432 11.9982 7.25 11.9982C7.71568 11.9982 8.1699 12.1426 8.55005 12.4116C8.9302 12.6806 9.21755 13.0609 9.3725 13.5H17V15H9.3725C9.21755 15.4392 8.9302 15.8194 8.55005 16.0884C8.1699 16.3574 7.71568 16.5018 7.25 16.5018C6.78432 16.5018 6.3301 16.3574 5.94995 16.0884C5.5698 15.8194 5.28245 15.4392 5.1275 15H2V13.5H5.1275ZM9.6275 8.25001C9.78245 7.81086 10.0698 7.43058 10.4499 7.1616C10.8301 6.89262 11.2843 6.74817 11.75 6.74817C12.2157 6.74817 12.6699 6.89262 13.0501 7.1616C13.4302 7.43058 13.7175 7.81086 13.8725 8.25001H17V9.75001H13.8725C13.7175 10.1892 13.4302 10.5694 13.0501 10.8384C12.6699 11.1074 12.2157 11.2518 11.75 11.2518C11.2843 11.2518 10.8301 11.1074 10.4499 10.8384C10.0698 10.5694 9.78245 10.1892 9.6275 9.75001H2V8.25001H9.6275ZM5.1275 3.00001C5.28245 2.56086 5.5698 2.18058 5.94995 1.9116C6.3301 1.64262 6.78432 1.49817 7.25 1.49817C7.71568 1.49817 8.1699 1.64262 8.55005 1.9116C8.9302 2.18058 9.21755 2.56086 9.3725 3.00001H17V4.50001H9.3725C9.21755 4.93916 8.9302 5.31943 8.55005 5.58841C8.1699 5.8574 7.71568 6.00184 7.25 6.00184C6.78432 6.00184 6.3301 5.8574 5.94995 5.58841C5.5698 5.31943 5.28245 4.93916 5.1275 4.50001H2V3.00001H5.1275Z" fill="#757575"/>
</svg>
