<svg width="19" height="18" viewBox="0 0 19 18" fill="none" xmlns="http://www.w3.org/2000/svg">
<path d="M14.0233 12.4628L17.2355 15.6742L16.1742 16.7355L12.9628 13.5233C11.7678 14.4812 10.2815 15.0022 8.75 15C5.024 15 2 11.976 2 8.25C2 4.524 5.024 1.5 8.75 1.5C12.476 1.5 15.5 4.524 15.5 8.25C15.5022 9.7815 14.9812 11.2678 14.0233 12.4628ZM12.5187 11.9062C13.4706 10.9274 14.0022 9.61532 14 8.25C14 5.34975 11.6503 3 8.75 3C5.84975 3 3.5 5.34975 3.5 8.25C3.5 11.1503 5.84975 13.5 8.75 13.5C10.1153 13.5022 11.4274 12.9706 12.4062 12.0187L12.5187 11.9062Z" fill="#757575"/>
</svg>
