<svg width="25" height="25" viewBox="0 0 25 25" fill="none" xmlns="http://www.w3.org/2000/svg">
<path d="M2.75 2.5H4.49001C5.57001 2.5 6.42 3.43 6.33 4.5L5.5 14.46C5.36 16.09 6.64999 17.49 8.28999 17.49H18.94C20.38 17.49 21.64 16.31 21.75 14.88L22.29 7.38C22.41 5.72 21.15 4.37 19.48 4.37H6.57001" stroke="#CCCCCC" stroke-width="1.5" stroke-miterlimit="10" stroke-linecap="round" stroke-linejoin="round"/>
<path d="M17 22.5C17.6904 22.5 18.25 21.9404 18.25 21.25C18.25 20.5596 17.6904 20 17 20C16.3096 20 15.75 20.5596 15.75 21.25C15.75 21.9404 16.3096 22.5 17 22.5Z" stroke="#CCCCCC" stroke-width="1.5" stroke-miterlimit="10" stroke-linecap="round" stroke-linejoin="round"/>
<path d="M9 22.5C9.69036 22.5 10.25 21.9404 10.25 21.25C10.25 20.5596 9.69036 20 9 20C8.30964 20 7.75 20.5596 7.75 21.25C7.75 21.9404 8.30964 22.5 9 22.5Z" stroke="#CCCCCC" stroke-width="1.5" stroke-miterlimit="10" stroke-linecap="round" stroke-linejoin="round"/>
<path d="M9.75 8.5H21.75" stroke="#CCCCCC" stroke-width="1.5" stroke-miterlimit="10" stroke-linecap="round" stroke-linejoin="round"/>
</svg>
