<svg width="14" height="15" viewBox="0 0 14 15" fill="none" xmlns="http://www.w3.org/2000/svg">
<path d="M8.00918 2.90362L9.03584 4.95695C9.17584 5.24278 9.54918 5.51695 9.86418 5.56945L11.725 5.87862C12.915 6.07695 13.195 6.94028 12.3375 7.79195L10.8908 9.23862C10.6458 9.48362 10.5117 9.95612 10.5875 10.2945L11.0017 12.0853C11.3283 13.5028 10.5758 14.0511 9.32168 13.3103L7.57751 12.2778C7.26251 12.0911 6.74334 12.0911 6.42251 12.2778L4.67834 13.3103C3.43001 14.0511 2.67167 13.497 2.99834 12.0853L3.41251 10.2945C3.48834 9.95612 3.35417 9.48362 3.10917 9.23862L1.66251 7.79195C0.810841 6.94028 1.08501 6.07695 2.27501 5.87862L4.13584 5.56945C4.44501 5.51695 4.81834 5.24278 4.95834 4.95695L5.98501 2.90362C6.54501 1.78945 7.45501 1.78945 8.00918 2.90362Z" stroke="#757575" stroke-width="1.11511" stroke-linecap="round" stroke-linejoin="round"/>
</svg>
