<svg width="12" height="12" viewBox="0 0 12 12" fill="none" xmlns="http://www.w3.org/2000/svg">
<path d="M6.865 1.75495L7.745 3.51495C7.865 3.75995 8.185 3.99495 8.455 4.03995L10.05 4.30495C11.07 4.47495 11.31 5.21495 10.575 5.94495L9.335 7.18495C9.125 7.39495 9.01 7.79995 9.075 8.08995L9.43 9.62495C9.71 10.8399 9.065 11.3099 7.99 10.6749L6.495 9.78995C6.225 9.62995 5.78 9.62995 5.505 9.78995L4.01 10.6749C2.94 11.3099 2.29 10.8349 2.57 9.62495L2.925 8.08995C2.99 7.79995 2.875 7.39495 2.665 7.18495L1.425 5.94495C0.695 5.21495 0.93 4.47495 1.95 4.30495L3.545 4.03995C3.81 3.99495 4.13 3.75995 4.25 3.51495L5.13 1.75495C5.61 0.799946 6.39 0.799946 6.865 1.75495Z" fill="#FFC107"/>
</svg>
