<svg width="24" height="24" viewBox="0 0 24 24" fill="none" xmlns="http://www.w3.org/2000/svg">
<path fill-rule="evenodd" clip-rule="evenodd" d="M5.3 7.6C6.01795 7.6 6.6 7.01795 6.6 6.3C6.6 5.58205 6.01795 5 5.3 5C4.58203 5 4 5.58205 4 6.3C4 7.01795 4.58203 7.6 5.3 7.6ZM5.3 6.73333C5.53932 6.73333 5.73333 6.53929 5.73333 6.3C5.73333 6.06071 5.53932 5.86667 5.3 5.86667C5.06068 5.86667 4.86667 6.06071 4.86667 6.3C4.86667 6.53929 5.06068 6.73333 5.3 6.73333ZM6.6 11.5C6.6 12.2179 6.01795 12.8 5.3 12.8C4.58203 12.8 4 12.2179 4 11.5C4 10.7821 4.58203 10.2 5.3 10.2C6.01795 10.2 6.6 10.7821 6.6 11.5ZM5.73333 11.5C5.73333 11.7393 5.53932 11.9333 5.3 11.9333C5.06068 11.9333 4.86667 11.7393 4.86667 11.5C4.86667 11.2607 5.06068 11.0667 5.3 11.0667C5.53932 11.0667 5.73333 11.2607 5.73333 11.5ZM5.3 18C6.01795 18 6.6 17.4179 6.6 16.7C6.6 15.9821 6.01795 15.4 5.3 15.4C4.58203 15.4 4 15.9821 4 16.7C4 17.4179 4.58203 18 5.3 18ZM5.3 17.1333C5.53932 17.1333 5.73333 16.9393 5.73333 16.7C5.73333 16.4607 5.53932 16.2667 5.3 16.2667C5.06068 16.2667 4.86667 16.4607 4.86667 16.7C4.86667 16.9393 5.06068 17.1333 5.3 17.1333Z" fill="#EE3139"/>
<path d="M9.20091 5.57732C8.80208 5.57732 8.47869 5.90071 8.47869 6.29954C8.47869 6.69838 8.80208 7.02177 9.20091 7.02177H19.6009C19.9997 7.02177 20.3231 6.69838 20.3231 6.29954C20.3231 5.90071 19.9997 5.57732 19.6009 5.57732H9.20091ZM9.20091 15.9773C8.80208 15.9773 8.47869 16.3007 8.47869 16.6995C8.47869 17.0984 8.80208 17.4218 9.20091 17.4218H19.6009C19.9997 17.4218 20.3231 17.0984 20.3231 16.6995C20.3231 16.3007 19.9997 15.9773 19.6009 15.9773H9.20091ZM9.20091 10.7773C8.80208 10.7773 8.47869 11.1007 8.47869 11.4995C8.47869 11.8984 8.80208 12.2218 9.20091 12.2218H19.6009C19.9997 12.2218 20.3231 11.8984 20.3231 11.4995C20.3231 11.1007 19.9997 10.7773 19.6009 10.7773H9.20091Z" fill="#EE3139" stroke="#EE3139" stroke-width="0.577778"/>
</svg>
